<svg width="292" height="325" viewBox="0 0 292 325" fill="none" xmlns="http://www.w3.org/2000/svg">
<style>
path {
    fill: #000;
}

@media (prefers-color-scheme: dark) {
    path{
        fill:#fff;
    }
}
</style>
<path d="M73.1836 323.5C70.1836 321.5 66.8503 316.5 63.1836 308.5C59.8503 300.5 58.1836 288 58.1836 271C58.1836 260 60.3503 248.833 64.6836 237.5C69.0169 225.833 75.0169 215.167 82.6836 205.5C90.3503 195.5 99.3503 187.5 109.684 181.5C120.017 175.5 131.184 172.5 143.184 172.5C153.184 172.5 160.684 175.667 165.684 182C170.684 188 173.184 194.833 173.184 202.5C173.184 211.167 169.517 221 162.184 232C154.85 242.667 143.85 251.833 129.184 259.5C114.85 267.167 96.8503 271 75.1836 271C62.8503 271 50.8503 269.333 39.1836 266C27.8503 262.333 18.5169 256.5 11.1836 248.5C3.85026 240.5 0.183594 230 0.183594 217C0.183594 200 5.51693 184.5 16.1836 170.5C27.1836 156.5 41.3503 145.333 58.6836 137C76.3503 128.667 95.0169 124.5 114.684 124.5C120.35 124.5 127.684 125.167 136.684 126.5C145.684 127.5 153.684 129.5 160.684 132.5C167.684 135.5 171.184 139.667 171.184 145C171.184 147.333 170.35 149 168.684 150C167.017 150.667 165.017 151 162.684 151C154.017 151 145.517 148.667 137.184 144C128.85 139 121.85 132.5 116.184 124.5C110.85 116.5 108.184 107.833 108.184 98.5C108.184 80.1667 113.684 63.6667 124.684 49C136.017 34 150.684 22.1667 168.684 13.5C187.017 4.83332 206.684 0.499985 227.684 0.499985C249.017 0.499985 265.017 4.33332 275.684 12C286.35 19.3333 291.684 29.5 291.684 42.5C291.684 53.8333 286.017 65 274.684 76C263.684 87 248.517 96 229.184 103C209.85 110 188.017 113.5 163.684 113.5C137.35 113.5 115.85 111 99.1836 106C82.5169 101 69.5169 95 60.1836 88C50.8503 80.6667 44.1836 73.8333 40.1836 67.5C36.5169 60.8333 34.1836 56.1667 33.1836 53.5C32.1836 50.8333 32.1836 49.3333 33.1836 49C34.1836 48.3333 35.5169 48.8333 37.1836 50.5C38.1836 52.1666 40.1836 56 43.1836 62C46.5169 68 52.0169 74.5 59.6836 81.5C67.6836 88.5 79.3503 94.6667 94.6836 100C110.017 105 130.35 107.5 155.684 107.5C169.684 107.5 184.184 105.833 199.184 102.5C214.517 99.1667 228.517 94.5 241.184 88.5C254.184 82.5 264.684 75.5 272.684 67.5C280.684 59.1666 284.684 50.1666 284.684 40.5C284.684 30.5 280.517 22.1666 272.184 15.5C263.85 8.83331 250.85 5.49998 233.184 5.49998C218.184 5.49998 204.184 8.99999 191.184 16C178.184 23 166.684 31.8333 156.684 42.5C147.017 52.8333 139.35 63.5 133.684 74.5C128.017 85.1667 125.184 94.1666 125.184 101.5C125.184 108.833 127.017 116 130.684 123C134.684 130 139.517 135.667 145.184 140C151.184 144.333 157.184 146.5 163.184 146.5C165.517 146.5 166.684 145.667 166.684 144C166.684 142.667 165.184 141 162.184 139C159.184 137 155.017 135.333 149.684 134C144.684 132.333 138.85 131.5 132.184 131.5C118.85 131.5 105.684 134.333 92.6836 140C79.6836 145.667 67.6836 153.167 56.6836 162.5C46.0169 171.5 37.3503 181.5 30.6836 192.5C24.3503 203.5 21.1836 214.333 21.1836 225C21.1836 233 23.0169 240 26.6836 246C30.6836 252 36.3503 256.833 43.6836 260.5C51.0169 263.833 60.1836 265.5 71.1836 265.5C82.1836 265.5 93.1836 263.167 104.184 258.5C115.184 253.5 125.184 247.167 134.184 239.5C143.517 231.833 150.85 224 156.184 216C161.85 207.667 164.684 200.333 164.684 194C164.684 189 162.85 185 159.184 182C155.517 178.667 150.35 177 143.684 177C132.684 177 122.35 180 112.684 186C103.017 191.667 94.3503 199.333 86.6836 209C79.3503 218.333 73.5169 228.833 69.1836 240.5C64.8503 251.833 62.8503 263.167 63.1836 274.5C63.5169 284.833 64.6836 294 66.6836 302C69.0169 310.333 72.1836 316.667 76.1836 321C76.8503 322 77.0169 323 76.6836 324C76.3503 325 75.1836 324.833 73.1836 323.5Z"/>
</svg>
